<svg data-v-0dd9719b="" version="1.0" xmlns="http://www.w3.org/2000/svg" xmlns:xlink="http://www.w3.org/1999/xlink" width="100%" height="100%" viewBox="0 0 340.000000 250.000000" preserveAspectRatio="xMidYMid meet" color-interpolation-filters="sRGB" style="margin: auto;"> <rect data-v-0dd9719b="" x="0" y="0" width="100%" height="100%" fill="#ffffff" fill-opacity="1" class="background"></rect> <rect data-v-0dd9719b="" x="0" y="0" width="100%" height="100%" fill="url(#watermark)" fill-opacity="1" class="watermarklayer"></rect> <g data-v-0dd9719b="" fill="#000000" class="icon-text-wrapper icon-svg-group iconsvg" transform="translate(54.39500427246094,94.05302238469082)"><g class="iconsvg-imagesvg" transform="translate(0,0)"><g><rect fill="#000000" fill-opacity="0" stroke-width="2" x="0" y="0" width="60" height="61.893955023726015" class="image-rect"></rect> <svg x="0" y="0" width="60" height="61.893955023726015" filtersec="colorsb4977976472" class="image-svg-svg primary" style="overflow: visible;"><svg xmlns="http://www.w3.org/2000/svg" viewBox="-0.00011149048805236816 0.0015849918127059937 147.79364013671875 152.45913696289062"><title>资源 6</title><g id="图层_2" data-name="图层 2"><g id="图层_1-2" data-name="图层 1"><path d="M147.44,78.43A100.52,100.52,0,0,0,125,60.1a98.52,98.52,0,0,0-19-8.84,54.81,54.81,0,0,0-7.09-2.08,6.68,6.68,0,0,0-.71-.25c-1.85-.42-3.7-.87-5.56-1.24a78.84,78.84,0,0,0-10.26-1.41,56.31,56.31,0,0,0-7.22-.44,95.72,95.72,0,0,0-15,.87,66.23,66.23,0,0,0-8.7,1.61,57.46,57.46,0,0,0-8.35,2.24,5.26,5.26,0,0,1-1.59.5c-.21-.08-.31.11-.46.19a18,18,0,0,1-1.91.67A.09.09,0,0,0,39,52a.84.84,0,0,1-1.22.47h0c-.26.08-.54.14-.8.24A95.74,95.74,0,0,0,25.8,57.83a83.19,83.19,0,0,0-9.51,5.9.38.38,0,0,0-.15.05A97.83,97.83,0,0,0,.25,77.54c-.5.53-.15.76.18,1.09Q9.66,87.86,18.87,97.1c.56.56.81.5,1.31,0a70.58,70.58,0,0,1,11.21-9.93c1.87-1.34,3.85-2.51,5.76-3.78h0c.18-.08.37-.15.54-.24A71.52,71.52,0,0,1,52,76.91a84.57,84.57,0,0,1,10.53-2.44c2.3-.26,4.6-.52,6.92-.67,2.86-.19,5.72,0,8.57,0,.2,0,.39.08.59.09a73.22,73.22,0,0,1,19.56,4.18c2.61.94,5.12,2.13,7.66,3.23l1.49.82a71.43,71.43,0,0,1,20.26,16c.46.53.72.58,1.23.05,2-2,4-4,6-6C136,91,137.14,90,138.13,88.79a1.48,1.48,0,0,0,.21-.13c3.06-3.06,6.11-6.12,9.19-9.15C148,79,147.76,78.78,147.44,78.43Z" fill="#000000"></path><path d="M85.93,139.84a13.44,13.44,0,0,0-8.86-7.22,10.6,10.6,0,0,0-4.3-.48,12.1,12.1,0,0,0-6,1.67,13.17,13.17,0,0,0-5.24,4.83c-.36.53-.28.84.16,1.28,3.35,3.31,6.67,6.65,10,10,.77.76,1.53,1.52,2.29,2.29.25.26.45.38.76.05,1.71-1.77,3.55-3.42,5.19-5.26a16.63,16.63,0,0,0,2.22-2.22,20,20,0,0,0,2.7-2.74c.24-.24.46-.49.72-.71A1,1,0,0,0,85.93,139.84Z" fill="#000000"></path><path d="M77,89c-3.09,0-6.18,0-9.26.16A42.17,42.17,0,0,1,77,89Z" fill="#f33422"></path><path d="M110.11,36.57,84.8,11.25Q79.27,5.72,73.69.2c-.2-.33-.41-.19-.61,0l-5.94,6c-.37.35-.76.67-1.11,1-3.18,3.28-6.57,6.35-9.64,9.73-1.51,1.25-2.81,2.72-4.19,4.1-2.09,2.08-4.14,4.19-6.21,6.3a1.55,1.55,0,0,0-.22.12q-4.64,4.64-9.26,9.28c-.1.1-.31.2-.12.45a3.25,3.25,0,0,0,.38-.08c2.63-.87,5.29-1.68,8-2.35l5.18-1.29h0a3.82,3.82,0,0,0,.59,0c2.15-.46,4.33-.82,6.51-1.12,1.84-.26,3.69-.49,5.53-.73h0q7.47-.57,15-.41h0l4.46.23a6.83,6.83,0,0,0,2.16.19l4.14.47h0l2.69.42,6,1a2.66,2.66,0,0,0,.39.16q4.62,1,9.15,2.34c1.34.4,2.68.84,4.06,1.27C110.58,36.89,110.3,36.76,110.11,36.57Z" fill="#f33422"></path><path d="M39,52c-.21,1.19-.27,1.21-1.22.47A3,3,0,0,1,39,52Z" fill="#f33422"></path><path d="M41,51.25a3.42,3.42,0,0,1-1.91.67A5.73,5.73,0,0,1,41,51.25Z" fill="#f33422"></path><path d="M43.08,50.56a1.8,1.8,0,0,1-1.59.5A5.26,5.26,0,0,1,43.08,50.56Z" fill="#f33422"></path><path d="M117.21,109.09a43.88,43.88,0,0,0-5.36-5.46,2.85,2.85,0,0,0-1.19-1A58.39,58.39,0,0,0,93.72,92.55,4.82,4.82,0,0,1,92.4,92c-.22-.12-.5,0-.7-.17a14.27,14.27,0,0,0-3.36-1.12A47.41,47.41,0,0,0,79,89.11h0A6.28,6.28,0,0,0,77,89a68.13,68.13,0,0,0-9.26.16,5.2,5.2,0,0,1-1.66.19,17.13,17.13,0,0,0-3.35.48,21.44,21.44,0,0,0-4.33,1.08,5.24,5.24,0,0,0-1.88.45,49.36,49.36,0,0,0-9.9,4.14A15.07,15.07,0,0,0,43.84,97a50.07,50.07,0,0,0-8.8,6.6,21.34,21.34,0,0,0-3.05,3,13.59,13.59,0,0,0-1.19,1.21c-.6.51-.43.85.07,1.34q8.91,8.86,17.78,17.76l2.58,2.58c.21.21.43.46.69.1.35-.51.88-.88,1.07-1.5h0a33.9,33.9,0,0,1,3.46-3.21h0c.14-.09.3-.16.43-.26A26.9,26.9,0,0,1,73.47,119c1.14,0,2.26.13,3.39.18h0a27.17,27.17,0,0,1,18.22,10.58c1,1.34,1,1.36,2.1,0a67.58,67.58,0,0,0,4.92-5c.22-.22.43-.44.65-.65,1.68-1.54,3.32-3.11,4.84-4.8.79-.77,1.61-1.51,2.37-2.3a39.18,39.18,0,0,0,3.23-3.34L117,110C117.29,109.74,117.58,109.52,117.21,109.09Z" fill="#f33422"></path><path d="M93.72,92.55A1.53,1.53,0,0,1,92.4,92,3.49,3.49,0,0,1,93.72,92.55Z" fill="#000000"></path></g></g></svg></svg> <!----></g></g> <g transform="translate(67,14.751977920532227)"><g data-gra="path-name" fill-rule="" class="tp-name iconsvg-namesvg"><g transform="scale(1)"><g><path d="M19.89-31.14L31-31.14 24.84-21.73 40.41-21.73 39.82-17.46 31.81-17.46 38.56 0.4 29.16 0.4 22.45-17.46 22.05-17.46 10.35 0.4 0.94 0.4 12.64-17.46 4.77-17.46 5.35-21.73 15.43-21.73 20.88-30.02 19.89-31.14ZM55.84-16.38L56.43-20.65 59.17-25.06 57.06-25.06 57.64-29.34 61.88-29.34 62.69-30.6 61.78-31.95 70.52-31.95 68.89-29.34 81.77-29.34 81.18-25.06 66.28-25.06 63.41-20.29 66.28-20.29 66.73-23.54 74.16-23.54 73.71-20.29 80.19-20.29 79.65-16.38 73.17-16.38 72.72-13.28 80.1-13.28 79.52-9.13 72.13-9.13 71.69-5.8 63.81-5.8 64.26-9.13 54.58-9.13 55.17-13.28 64.84-13.28 65.25-16.38 55.84-16.38ZM50.13-0.36L42.43-0.36 44.73-4.63 46.89-20.02 45.18-20.02 45.77-24.3 55.17-24.3 52.7-6.48 58.86-4.72 79.29-4.72 78.7-0.36 55.26-0.36 50.85-1.67 50.13-0.36ZM46.89-31.14L53.73-31.14 55.44-26.01 48.6-26.01 46.89-31.14ZM122.8-25.15L113.31-20.88 123.07-20.88 120.51-2.61Q120.28-1.3 119.27-0.47 118.26 0.36 116.95 0.36L116.95 0.36 109.8 0.36 113.31-3.38 115.2-16.61 114.44-16.61 108.67 0.36 102.73 0.36 108.5-16.61 107.32-16.61 101.56 0.36 95.76 0.36 101.52-16.61 100.48-16.61 101.07-20.88 113.94-26.86 101.88-26.86 102.47-31.14 123.66-31.14 122.8-25.15ZM83.3 0.36L86.67-3.82 87.48-9.67 84.6-8.91 85.27-13.63 88.16-14.4 89.28-22.59 86.53-22.59 87.16-26.86 89.91-26.86 90.45-30.69 89.59-31.99 98.1-31.99 97.38-26.86 100.8-26.86 100.17-22.59 96.75-22.59 95.89-16.52 99.45-17.46 98.77-12.73 95.22-11.79 93.96-2.61Q93.73-1.3 92.92-0.47 92.11 0.36 91.08 0.36L91.08 0.36 83.3 0.36ZM140.94-10.84L141.61-15.71 143.95-19.57 141.57-19.57 142.2-23.94 146.61-23.94 147.64-25.61 153.58-25.61 152.59-23.94 163.66-23.94 163.03-19.57 150.03-19.57 147.51-15.25 150.12-15.25 150.57-18.4 157.81-18.4 157.36-15.25 161.82-15.25 161.19-10.84 156.73-10.84 156.46-8.96 162.09-8.96 161.46-4.46 155.83-4.46 155.16 0.4 147.91 0.4 148.59-4.46 138.91-4.46 139.54-8.96 149.22-8.96 149.49-10.84 140.94-10.84ZM124.6-1.4L128.52-29.16 127.75-30.46 141.61-30.46 137.52-1.4 124.6-1.4ZM158.94-24.88L159.21-26.86 147.24-26.86 146.97-24.88 141.93-24.88 142.78-31.14 165.15-31.14 164.29-24.88 158.94-24.88ZM130.05-5.67L133.56-5.67 134.73-14.22 131.22-14.22 130.05-5.67ZM132.93-26.19L131.85-18.5 135.36-18.5 136.44-26.19 132.93-26.19Z" transform="translate(-0.940000057220459, 31.989999771118164)"></path></g> <!----> <!----> <!----> <!----> <!----> <!----> <!----></g></g> <!----></g></g><defs v-gra="od"></defs></svg>